HIERARCHY
ROOT joint_Root
{
	OFFSET 0.0 0.0 0.0
	CHANNELS 6 Xposition Yposition Zposition Zrotation Xrotation Yrotation 
	JOINT Hips
	{
		OFFSET -0.726466 93.3139 -2.00062
		CHANNELS 6 Xposition Yposition Zposition Zrotation Xrotation Yrotation 
		JOINT Spine
		{
			OFFSET 15.7357 0.0 0.0
			CHANNELS 6 Xposition Yposition Zposition Zrotation Xrotation Yrotation 
			JOINT Chest
			{
				OFFSET 8.98455 -0.406207 0.0
				CHANNELS 6 Xposition Yposition Zposition Zrotation Xrotation Yrotation 
				JOINT Neck
				{
					OFFSET 16.3773 0.0 0.0
					CHANNELS 6 Xposition Yposition Zposition Zrotation Xrotation Yrotation 
					JOINT Head
					{
						OFFSET 6.45672 0.0 0.0
						CHANNELS 6 Xposition Yposition Zposition Zrotation Xrotation Yrotation 
						End Site
						{
							OFFSET 0.0 0.0 0.0
						}
					}
				}
				JOINT Shoulder_L
				{
					OFFSET 12.9942 -0.242716 4.98039
					CHANNELS 6 Xposition Yposition Zposition Zrotation Xrotation Yrotation 
					JOINT UpperArm_L
					{
						OFFSET 5.34809 0.0 0.0
						CHANNELS 6 Xposition Yposition Zposition Zrotation Xrotation Yrotation 
						JOINT LowerArm_L
						{
							OFFSET 24.3286 1.87007e-05 0.0
							CHANNELS 6 Xposition Yposition Zposition Zrotation Xrotation Yrotation 
							JOINT Hand_L
							{
								OFFSET 22.2916 0.0 0.0
								CHANNELS 6 Xposition Yposition Zposition Zrotation Xrotation Yrotation 
								End Site
								{
									OFFSET 0.0 0.0 0.0
								}
							}
						}
					}
				}
				JOINT Shoulder_R
				{
					OFFSET 12.9945 -0.242716 -4.98039
					CHANNELS 6 Xposition Yposition Zposition Zrotation Xrotation Yrotation 
					JOINT UpperArm_R
					{
						OFFSET -5.34813 0.0 0.0
						CHANNELS 6 Xposition Yposition Zposition Zrotation Xrotation Yrotation 
						JOINT LowerArm_R
						{
							OFFSET -24.3289 0.000322201 0.0
							CHANNELS 6 Xposition Yposition Zposition Zrotation Xrotation Yrotation 
							JOINT Hand_R
							{
								OFFSET -22.2915 -0.000108084 0.0
								CHANNELS 6 Xposition Yposition Zposition Zrotation Xrotation Yrotation 
								End Site
								{
									OFFSET 0.0 0.0 0.0
								}
							}
						}
					}
				}
			}
		}
		JOINT UpperLeg_L
		{
			OFFSET -2.19248 -6.46944 0.0
			CHANNELS 6 Xposition Yposition Zposition Zrotation Xrotation Yrotation 
			JOINT LowerLeg_L
			{
				OFFSET 39.0811 0.0 -1.23785e-05
				CHANNELS 6 Xposition Yposition Zposition Zrotation Xrotation Yrotation 
				JOINT Foot_L
				{
					OFFSET 40.9854 0.0 -1.26872e-05
					CHANNELS 6 Xposition Yposition Zposition Zrotation Xrotation Yrotation 
					JOINT Toes_L
					{
						OFFSET 11.7543 0.0 0.0
						CHANNELS 6 Xposition Yposition Zposition Zrotation Xrotation Yrotation 
						End Site
						{
							OFFSET 0.0 0.0 0.0
						}
					}
				}
			}
		}
		JOINT UpperLeg_R
		{
			OFFSET -2.19251 6.46944 0.0
			CHANNELS 6 Xposition Yposition Zposition Zrotation Xrotation Yrotation 
			JOINT LowerLeg_R
			{
				OFFSET -39.0811 -0.00228153 -0.0401928
				CHANNELS 6 Xposition Yposition Zposition Zrotation Xrotation Yrotation 
				JOINT Foot_R
				{
					OFFSET -40.9854 0.0 0.0
					CHANNELS 6 Xposition Yposition Zposition Zrotation Xrotation Yrotation 
					JOINT Toes_R
					{
						OFFSET -11.7543 0.0 0.0
						CHANNELS 6 Xposition Yposition Zposition Zrotation Xrotation Yrotation 
						End Site
						{
							OFFSET 0.0 0.0 0.0
						}
					}
				}
			}
		}
	}
}
MOTION
Frames:	5
Frame Time:	0.0333333
0.000000 0.000000 0.000000 0.000000 0.000000 -0.000000 -0.551309 92.751100 1.002380 89.211400 -2.216140 1.933350 15.735700 0.000005 -0.000001 95.987000 86.550900 -96.251700 8.984550 -0.406207 -0.000000 -0.903704 0.739371 -0.523418 16.377300 -0.000001 -0.000001 2.452900 -3.242830 3.231400 6.456720 -0.000001 -0.000000 9.294380 -2.609820 -3.219400 12.994200 -0.242716 4.980390 -90.249900 0.775620 -72.142200 5.348090 -0.000007 -0.000001 -67.560300 39.385600 -13.087600 24.328600 0.000019 0.000005 4.745040 11.193100 -23.150600 22.291600 -0.000001 0.000005 6.244250 5.459470 -4.981450 12.994500 -0.242716 -4.980390 87.700900 7.644000 -73.204400 -5.348130 -0.000001 -0.000004 -64.772400 40.919000 -11.865100 -24.328900 0.000322 -0.000009 4.279260 10.917900 -21.562200 -22.291500 -0.000108 -0.000004 9.927670 5.325580 -0.657268 -2.192480 -6.469440 -0.000000 -176.544000 -8.894510 -1.846140 39.081100 -0.000007 -0.000012 -0.074906 0.232033 17.891400 40.985400 -0.000006 -0.000013 -0.433517 4.278260 -64.199200 11.754300 -0.000000 0.000003 -0.000001 -0.000019 -16.578200 -2.192510 6.469440 -0.000001 178.170000 12.291600 -178.820000 -39.081100 -0.002282 -0.040193 -0.066997 0.271064 14.544900 -40.985400 0.000008 0.000006 0.373795 6.945630 -63.859600 -11.754300 -0.000006 -0.000006 -0.004553 -0.057071 -18.894900
0.000000 0.000000 0.000000 0.000000 0.000000 -0.000000 -0.546284 92.744400 1.026400 89.192600 -2.282780 1.928610 15.735700 0.000005 -0.000001 96.116000 86.565200 -96.392000 8.984550 -0.406207 -0.000000 -0.933601 0.752704 -0.545566 16.377300 -0.000001 -0.000001 2.295090 -3.209420 3.325180 6.456720 -0.000001 -0.000000 9.216130 -2.576630 -3.184670 12.994200 -0.242716 4.980390 -90.266400 0.818926 -71.980500 5.348090 -0.000007 -0.000001 -66.648700 38.700800 -13.508600 24.328600 0.000019 0.000005 5.896240 12.723300 -25.119600 22.291600 -0.000001 0.000005 5.547730 5.461560 -5.057690 12.994500 -0.242716 -4.980390 87.690400 7.639340 -73.122900 -5.348130 -0.000001 -0.000004 -63.658300 40.899700 -12.182000 -24.328900 0.000322 -0.000009 4.817360 10.787700 -24.245800 -22.291500 -0.000108 -0.000004 9.277630 5.319400 -0.477682 -2.192480 -6.469440 -0.000000 -176.533000 -8.867820 -1.849140 39.081100 -0.000007 -0.000012 -0.075018 0.231650 17.944000 40.985400 -0.000006 -0.000013 -0.444505 4.191340 -64.251400 11.754300 -0.000000 0.000003 -0.000001 -0.000010 -16.577900 -2.192510 6.469440 -0.000001 178.195000 12.246400 -178.841000 -39.081100 -0.002282 -0.040193 -0.066408 0.267957 14.588200 -40.985400 0.000008 0.000006 0.379708 6.943990 -63.887400 -11.754300 -0.000006 -0.000006 -0.004493 -0.056478 -18.870700
0.000000 0.000000 0.000000 0.000000 0.000000 -0.000000 -0.538852 92.746300 1.007770 89.168800 -2.302220 1.921130 15.735700 0.000005 -0.000001 95.821900 86.570100 -96.087200 8.984550 -0.406207 -0.000000 -0.939956 0.715833 -0.524588 16.377300 -0.000001 -0.000001 2.178620 -3.117250 3.399920 6.456720 -0.000001 -0.000000 9.013000 -2.503290 -3.215780 12.994200 -0.242716 4.980390 -90.310700 0.946857 -71.834600 5.348090 -0.000007 -0.000001 -65.221500 37.023200 -14.171600 24.328600 0.000019 0.000005 7.128250 13.476000 -28.218200 22.291600 -0.000001 0.000005 5.054940 5.452600 -4.731520 12.994500 -0.242716 -4.980390 87.661200 7.651880 -72.947500 -5.348130 -0.000001 -0.000004 -61.351800 40.437500 -13.117800 -24.328900 0.000322 -0.000009 5.397800 9.910300 -28.774100 -22.291500 -0.000108 -0.000004 8.921490 5.308840 -0.177263 -2.192480 -6.469440 -0.000000 -176.521000 -8.887220 -1.879820 39.081100 -0.000007 -0.000012 -0.075343 0.232313 17.968800 40.985400 -0.000006 -0.000013 -0.435013 4.177930 -64.252500 11.754300 -0.000000 0.000003 -0.000001 -0.000018 -16.578200 -2.192510 6.469440 -0.000001 178.218000 12.206000 -178.843000 -39.081100 -0.002282 -0.040193 -0.066953 0.270718 14.553900 -40.985400 0.000008 0.000006 0.365982 6.919790 -63.856900 -11.754300 -0.000006 -0.000006 -0.004372 -0.055258 -18.821000
0.000000 0.000000 0.000000 0.000000 0.000000 -0.000000 -0.513007 92.748100 0.973055 89.162500 -2.337140 1.976150 15.735700 0.000005 -0.000001 95.677100 86.571000 -95.925500 8.984550 -0.406207 -0.000000 -0.940215 0.697134 -0.490824 16.377300 -0.000001 -0.000001 2.139680 -3.043480 3.479100 6.456720 -0.000001 -0.000000 8.936870 -2.327180 -3.314880 12.994200 -0.242716 4.980390 -90.367600 1.112920 -71.719300 5.348090 -0.000007 -0.000001 -63.165000 34.206300 -15.325600 24.328600 0.000019 0.000005 8.036720 12.957800 -32.197700 22.291600 -0.000001 0.000005 4.903030 5.449880 -4.634640 12.994500 -0.242716 -4.980390 87.623800 7.630140 -72.644500 -5.348130 -0.000001 -0.000004 -57.796400 39.214900 -15.060600 -24.328900 0.000322 -0.000009 6.302330 9.261230 -34.463700 -22.291500 -0.000108 -0.000004 8.983240 5.325990 -0.667509 -2.192480 -6.469440 -0.000000 -176.526000 -8.904600 -1.849490 39.081100 -0.000007 -0.000012 -0.074890 0.230691 17.985200 40.985400 -0.000006 -0.000013 -0.425858 4.136230 -64.243700 11.754300 -0.000000 0.000003 -0.000001 -0.000009 -16.577800 -2.192510 6.469440 -0.000001 178.204000 12.180100 -178.829000 -39.081100 -0.002282 -0.040193 -0.066213 0.267484 14.573900 -40.985400 0.000008 0.000006 0.362065 6.957560 -63.835200 -11.754300 -0.000006 -0.000006 -0.004496 -0.056500 -18.871700
0.000000 0.000000 0.000000 0.000000 0.000000 -0.000000 -0.482317 92.750700 0.911368 89.167300 -2.450340 2.030630 15.735700 0.000005 -0.000001 95.541100 86.593200 -95.773400 8.984550 -0.406207 -0.000000 -0.982966 0.675509 -0.458569 16.377300 -0.000001 -0.000001 2.283050 -2.934120 3.517640 6.456720 -0.000001 -0.000000 8.906660 -2.160470 -3.353180 12.994200 -0.242716 4.980390 -90.390700 1.167090 -71.492000 5.348090 -0.000007 -0.000001 -60.384700 30.886100 -17.203400 24.328600 0.000019 0.000005 9.180070 12.278500 -37.230900 22.291600 -0.000001 0.000005 6.306570 5.460960 -5.032610 12.994500 -0.242716 -4.980390 87.627900 7.455850 -72.294800 -5.348130 -0.000001 -0.000004 -53.239600 37.251300 -18.171900 -24.328900 0.000322 -0.000009 7.717340 9.003540 -40.890800 -22.291500 -0.000108 -0.000004 10.017200 5.333220 -0.878746 -2.192480 -6.469440 -0.000000 -176.537000 -9.096940 -1.837030 39.081100 -0.000007 -0.000012 -0.074363 0.228751 18.008400 40.985400 -0.000006 -0.000013 -0.384163 4.217520 -64.220200 11.754300 -0.000000 0.000003 -0.000001 -0.000013 -16.578000 -2.192510 6.469440 -0.000001 178.180000 12.084500 -178.859000 -39.081100 -0.002282 -0.040193 -0.066059 0.265744 14.634100 -40.985400 0.000008 0.000006 0.348327 6.962620 -63.809700 -11.754300 -0.000006 -0.000006 -0.004230 -0.053808 -18.762000
